<svg id="Layer" enable-background="new 0 0 64 64" height="20" viewBox="0 0 64 64" width="20" xmlns="http://www.w3.org/2000/svg"><path d="m28 22c-3.86 0-7 3.141-7 7s3.14 7 7 7 7-3.141 7-7-3.14-7-7-7zm0 10c-1.654 0-3-1.346-3-3s1.346-3 3-3 3 1.346 3 3-1.346 3-3 3z"/><path d="m54 30h-3.107c-.393-3.741-1.88-7.158-4.129-9.935l2.207-2.208c.781-.781.781-2.048 0-2.828-.781-.781-2.047-.781-2.829 0l-2.207 2.207c-2.777-2.249-6.194-3.736-9.935-4.129v-3.107c0-1.104-.896-2-2-2s-2 .896-2 2v3.107c-3.741.393-7.158 1.88-9.935 4.129l-2.207-2.207c-.781-.781-2.047-.781-2.829 0-.781.78-.781 2.047 0 2.828l2.207 2.208c-2.249 2.777-3.736 6.194-4.129 9.935h-3.107c-1.104 0-2 .896-2 2s.896 2 2 2h3.107c.393 3.741 1.88 7.158 4.129 9.935l-2.207 2.208c-.781.781-.781 2.048 0 2.828.391.391.902.586 1.414.586s1.024-.195 1.415-.586l2.207-2.207c2.777 2.249 6.194 3.736 9.935 4.129v3.107c0 1.104.896 2 2 2s2-.896 2-2v-3.107c3.741-.393 7.158-1.88 9.935-4.129l2.207 2.207c.391.391.902.586 1.415.586.512 0 1.023-.195 1.414-.586.781-.78.781-2.047 0-2.828l-2.207-2.208c2.249-2.777 3.736-6.194 4.129-9.935h3.107c1.104 0 2-.896 2-2s-.896-2-2-2zm-22 17c-8.271 0-15-6.729-15-15s6.729-15 15-15 15 6.729 15 15-6.729 15-15 15z"/></svg>